<svg xmlns="http://www.w3.org/2000/svg" width="256" height="256" viewBox="0 0 100 100"><rect width="100" height="100" rx="20" fill="#3c394f"></rect><path fill="#fff" d="M33.33 60.40L33.33 60.40Q32.83 60.76 32 61.05Q31.17 61.34 30.16 61.34L30.16 61.34Q29.01 61.34 28.11 60.98Q27.21 60.62 26.85 59.83L26.85 59.83Q22.96 51.76 20.16 45.07Q17.35 38.37 15.62 33.98L15.62 33.98L15.33 33.98Q15.12 39.38 14.86 44.02Q14.61 48.67 14.32 53.10Q14.04 57.52 13.75 62.06Q13.46 66.60 13.17 71.78L13.17 71.78Q12.74 71.92 12.06 72.07Q11.37 72.21 10.58 72.21L10.58 72.21Q9.00 72.21 8.35 71.56Q7.70 70.92 7.70 69.69L7.70 69.69Q7.70 68.97 7.81 66.60Q7.92 64.22 8.13 60.84Q8.35 57.45 8.60 53.35Q8.85 49.24 9.18 45.00Q9.50 40.75 9.82 36.64Q10.15 32.54 10.44 29.16L10.44 29.16Q11.01 28.65 12.09 28.22Q13.17 27.79 14.54 27.79L14.54 27.79Q17.85 27.79 19.15 30.45L19.15 30.45Q20.52 33.26 21.92 36.39Q23.32 39.52 24.73 42.76Q26.13 46.00 27.46 49.17Q28.80 52.34 30.02 55.22L30.02 55.22L30.31 55.22Q31.89 51.40 33.48 47.70Q35.06 43.99 36.57 40.53Q38.08 37.08 39.45 34.05Q40.82 31.03 41.90 28.51L41.90 28.51Q42.55 28.15 43.56 27.97Q44.56 27.79 45.43 27.79L45.43 27.79Q48.81 27.79 49.32 30.09L49.32 30.09Q49.60 31.39 49.96 34.38Q50.32 37.36 50.68 41.25Q51.04 45.14 51.37 49.60Q51.69 54.07 51.98 58.21Q52.27 62.35 52.48 65.84Q52.70 69.33 52.84 71.35L52.84 71.35Q51.55 72.21 49.82 72.21L49.82 72.21Q48.74 72.21 47.91 71.67Q47.08 71.13 46.94 69.69L46.94 69.69Q46.58 64.44 46.29 59.25Q46.00 54.07 45.75 49.39Q45.50 44.71 45.28 40.78Q45.07 36.86 44.92 34.12L44.92 34.12L44.64 34.12Q43.84 36.14 42.80 38.66Q41.76 41.18 40.35 44.35Q38.95 47.52 37.22 51.51Q35.49 55.51 33.33 60.40ZM67.75 28.00L91.65 28.00Q91.87 28.36 92.08 28.98Q92.30 29.59 92.30 30.31L92.30 30.31Q92.30 31.53 91.72 32.25Q91.15 32.97 90.07 32.97L90.07 32.97L70.48 32.97L70.48 47.95L89.13 47.95Q89.35 48.31 89.56 48.92Q89.78 49.53 89.78 50.25L89.78 50.25Q89.78 51.48 89.20 52.20Q88.63 52.92 87.55 52.92L87.55 52.92L70.48 52.92L70.48 71.71Q70.12 71.85 69.37 72.00Q68.61 72.14 67.82 72.14L67.82 72.14Q64.58 72.14 64.58 69.55L64.58 69.55L64.58 31.17Q64.58 29.73 65.44 28.87Q66.31 28.00 67.75 28.00L67.75 28.00Z"></path></svg>